<mxfile host="app.diagrams.net" modified="2021-07-08T16:00:52.701Z" agent="5.0 (Macintosh; Intel Mac OS X 10_15_7) AppleWebKit/537.36 (KHTML, like Gecko) Chrome/91.0.4472.114 Safari/537.36" etag="JOZw37x5EnPh1v1hAnL8" version="14.7.3" type="github">
  <diagram name="Page-1" id="19d8dcba-68ad-dc05-1034-9cf7b2a963f6">
    <mxGraphModel dx="1298" dy="762" grid="1" gridSize="10" guides="1" tooltips="1" connect="1" arrows="1" fold="1" page="1" pageScale="1" pageWidth="1100" pageHeight="850" background="none" math="0" shadow="0">
      <root>
        <mxCell id="0" />
        <mxCell id="1" parent="0" />
        <mxCell id="218ae93e1282097f-12" value="" style="whiteSpace=wrap;html=1;rounded=1;shadow=0;comic=0;strokeWidth=2;fontFamily=Verdana;align=center;fontSize=10;" parent="1" vertex="1">
          <mxGeometry x="29" y="470" width="291" height="180" as="geometry" />
        </mxCell>
        <mxCell id="218ae93e1282097f-45" value="" style="edgeStyle=elbowEdgeStyle;rounded=1;html=1;labelBackgroundColor=none;endArrow=block;endFill=1;strokeColor=#4D4D4D;strokeWidth=2;fontFamily=Verdana;fontSize=12;fontStyle=1" parent="1" source="6257edae8c83ed4a-9" target="6257edae8c83ed4a-21" edge="1">
          <mxGeometry relative="1" as="geometry" />
        </mxCell>
        <mxCell id="218ae93e1282097f-46" value="" style="edgeStyle=orthogonalEdgeStyle;rounded=1;html=1;labelBackgroundColor=none;endArrow=block;endFill=1;strokeColor=#4D4D4D;strokeWidth=2;fontFamily=Verdana;fontSize=12;fontStyle=1" parent="1" source="6257edae8c83ed4a-9" target="218ae93e1282097f-8" edge="1">
          <mxGeometry relative="1" as="geometry" />
        </mxCell>
        <mxCell id="218ae93e1282097f-51" value="" style="edgeStyle=elbowEdgeStyle;rounded=1;html=1;labelBackgroundColor=none;endArrow=block;endFill=1;strokeColor=#4D4D4D;strokeWidth=2;fontFamily=Verdana;fontSize=10;" parent="1" source="6257edae8c83ed4a-12" edge="1">
          <mxGeometry relative="1" as="geometry">
            <mxPoint x="922" y="470" as="targetPoint" />
          </mxGeometry>
        </mxCell>
        <mxCell id="218ae93e1282097f-52" value="" style="edgeStyle=elbowEdgeStyle;rounded=1;html=1;labelBackgroundColor=none;endArrow=block;endFill=1;strokeColor=#4D4D4D;strokeWidth=2;fontFamily=Verdana;fontSize=10;" parent="1" source="6257edae8c83ed4a-21" edge="1">
          <mxGeometry relative="1" as="geometry">
            <mxPoint x="559" y="470" as="targetPoint" />
          </mxGeometry>
        </mxCell>
        <mxCell id="218ae93e1282097f-53" value="" style="edgeStyle=elbowEdgeStyle;rounded=1;html=1;labelBackgroundColor=none;endArrow=block;endFill=1;strokeColor=#4D4D4D;strokeWidth=2;fontFamily=Verdana;fontSize=10;" parent="1" source="218ae93e1282097f-8" target="218ae93e1282097f-12" edge="1">
          <mxGeometry relative="1" as="geometry" />
        </mxCell>
        <mxCell id="218ae93e1282097f-8" value="Cloud Operations&lt;br&gt;Team Lead" style="whiteSpace=wrap;html=1;rounded=1;shadow=0;comic=0;strokeWidth=2;fontFamily=Verdana;align=center;fontSize=12;fontStyle=1" parent="1" vertex="1">
          <mxGeometry x="79" y="360" width="200" height="50" as="geometry" />
        </mxCell>
        <mxCell id="218ae93e1282097f-9" value="" style="shape=actor;whiteSpace=wrap;html=1;rounded=0;shadow=0;comic=0;strokeWidth=1;fillColor=#CCCCCC;fontFamily=Verdana;align=center;strokeColor=none;fontSize=12;fontStyle=1" parent="1" vertex="1">
          <mxGeometry x="93" y="370" width="24" height="30" as="geometry" />
        </mxCell>
        <mxCell id="qQOt5yg33PH5VMS5Yy8w-1" style="edgeStyle=orthogonalEdgeStyle;rounded=1;orthogonalLoop=1;jettySize=auto;html=1;entryX=0.5;entryY=0;entryDx=0;entryDy=0;strokeWidth=2;" edge="1" parent="1" source="6257edae8c83ed4a-9" target="6257edae8c83ed4a-12">
          <mxGeometry relative="1" as="geometry" />
        </mxCell>
        <mxCell id="6257edae8c83ed4a-9" value="Cloud Architect" style="whiteSpace=wrap;html=1;rounded=1;shadow=0;comic=0;strokeWidth=2;fontFamily=Verdana;align=center;fontSize=12;fontStyle=1" parent="1" vertex="1">
          <mxGeometry x="461" y="240" width="200" height="50" as="geometry" />
        </mxCell>
        <mxCell id="6257edae8c83ed4a-10" value="" style="shape=actor;whiteSpace=wrap;html=1;rounded=0;shadow=0;comic=0;strokeWidth=1;fillColor=#CCCCCC;fontFamily=Verdana;align=center;strokeColor=none;fontSize=12;fontStyle=1" parent="1" vertex="1">
          <mxGeometry x="475" y="250" width="24" height="30" as="geometry" />
        </mxCell>
        <mxCell id="6257edae8c83ed4a-21" value="&lt;div&gt;Cloud Platform&lt;/div&gt;&lt;div&gt;Team Lead&lt;/div&gt;" style="whiteSpace=wrap;html=1;rounded=1;shadow=0;comic=0;strokeWidth=2;fontFamily=Verdana;align=center;fontSize=12;fontStyle=1" parent="1" vertex="1">
          <mxGeometry x="459" y="360" width="200" height="50" as="geometry" />
        </mxCell>
        <mxCell id="6257edae8c83ed4a-22" value="" style="shape=actor;whiteSpace=wrap;html=1;rounded=0;shadow=0;comic=0;strokeWidth=1;fillColor=#CCCCCC;fontFamily=Verdana;align=center;strokeColor=none;fontSize=12;fontStyle=1" parent="1" vertex="1">
          <mxGeometry x="473" y="370" width="24" height="30" as="geometry" />
        </mxCell>
        <mxCell id="6257edae8c83ed4a-12" value="Cloud Consulting&amp;nbsp;&lt;br&gt;Team Lead" style="whiteSpace=wrap;html=1;rounded=1;shadow=0;comic=0;strokeWidth=2;fontFamily=Verdana;align=center;fontSize=12;fontStyle=1" parent="1" vertex="1">
          <mxGeometry x="822" y="360" width="200" height="50" as="geometry" />
        </mxCell>
        <mxCell id="6257edae8c83ed4a-13" value="" style="shape=actor;whiteSpace=wrap;html=1;rounded=0;shadow=0;comic=0;strokeWidth=1;fillColor=#CCCCCC;fontFamily=Verdana;align=center;strokeColor=none;fontSize=12;fontStyle=1" parent="1" vertex="1">
          <mxGeometry x="836" y="370" width="24" height="30" as="geometry" />
        </mxCell>
        <mxCell id="qQOt5yg33PH5VMS5Yy8w-9" value="" style="edgeStyle=orthogonalEdgeStyle;rounded=1;orthogonalLoop=1;jettySize=auto;html=1;strokeWidth=2;" edge="1" parent="1" source="qQOt5yg33PH5VMS5Yy8w-2" target="6257edae8c83ed4a-9">
          <mxGeometry relative="1" as="geometry" />
        </mxCell>
        <mxCell id="qQOt5yg33PH5VMS5Yy8w-2" value="Enterprise IT&lt;br&gt;&amp;nbsp;Architect" style="whiteSpace=wrap;html=1;rounded=1;shadow=0;comic=0;strokeWidth=2;fontFamily=Verdana;align=center;fontSize=12;fontStyle=1" vertex="1" parent="1">
          <mxGeometry x="461" y="140" width="200" height="50" as="geometry" />
        </mxCell>
        <mxCell id="qQOt5yg33PH5VMS5Yy8w-3" value="" style="shape=actor;whiteSpace=wrap;html=1;rounded=0;shadow=0;comic=0;strokeWidth=1;fillColor=#CCCCCC;fontFamily=Verdana;align=center;strokeColor=none;fontSize=12;fontStyle=1" vertex="1" parent="1">
          <mxGeometry x="473" y="150" width="24" height="30" as="geometry" />
        </mxCell>
        <mxCell id="qQOt5yg33PH5VMS5Yy8w-8" value="" style="edgeStyle=orthogonalEdgeStyle;rounded=1;orthogonalLoop=1;jettySize=auto;html=1;strokeWidth=2;" edge="1" parent="1" source="qQOt5yg33PH5VMS5Yy8w-6" target="qQOt5yg33PH5VMS5Yy8w-2">
          <mxGeometry relative="1" as="geometry" />
        </mxCell>
        <mxCell id="qQOt5yg33PH5VMS5Yy8w-6" value="Executive IT&lt;br&gt;Leadership" style="whiteSpace=wrap;html=1;rounded=1;shadow=0;comic=0;strokeWidth=2;fontFamily=Verdana;align=center;fontSize=12;fontStyle=1" vertex="1" parent="1">
          <mxGeometry x="461" y="50" width="200" height="50" as="geometry" />
        </mxCell>
        <mxCell id="qQOt5yg33PH5VMS5Yy8w-7" value="" style="shape=actor;whiteSpace=wrap;html=1;rounded=0;shadow=0;comic=0;strokeWidth=1;fillColor=#CCCCCC;fontFamily=Verdana;align=center;strokeColor=none;fontSize=12;fontStyle=1" vertex="1" parent="1">
          <mxGeometry x="473" y="60" width="24" height="30" as="geometry" />
        </mxCell>
        <mxCell id="qQOt5yg33PH5VMS5Yy8w-11" value="" style="whiteSpace=wrap;html=1;rounded=1;shadow=0;comic=0;strokeWidth=2;fontFamily=Verdana;align=center;fontSize=10;" vertex="1" parent="1">
          <mxGeometry x="411" y="470" width="299" height="180" as="geometry" />
        </mxCell>
        <mxCell id="qQOt5yg33PH5VMS5Yy8w-15" value="" style="whiteSpace=wrap;html=1;rounded=1;shadow=0;comic=0;strokeWidth=2;fontFamily=Verdana;align=center;fontSize=10;" vertex="1" parent="1">
          <mxGeometry x="772" y="470" width="298" height="180" as="geometry" />
        </mxCell>
        <mxCell id="qQOt5yg33PH5VMS5Yy8w-19" value="&lt;h1&gt;Cloud Operations Team&lt;/h1&gt;&lt;div&gt;&lt;ul&gt;&lt;li&gt;Responds to Incidents/Tickets&lt;/li&gt;&lt;li&gt;Works to Right Size/Cost Optimize&lt;/li&gt;&lt;li&gt;Responds to AWS Config Alerts&lt;/li&gt;&lt;li&gt;Day to Day Administration&lt;/li&gt;&lt;li&gt;Account Provisioning&lt;/li&gt;&lt;/ul&gt;&lt;/div&gt;" style="text;html=1;strokeColor=none;fillColor=none;spacing=5;spacingTop=-20;whiteSpace=wrap;overflow=hidden;rounded=0;align=left;" vertex="1" parent="1">
          <mxGeometry x="30" y="470" width="280" height="180" as="geometry" />
        </mxCell>
        <mxCell id="qQOt5yg33PH5VMS5Yy8w-21" value="&lt;h1 style=&quot;text-align: center&quot;&gt;Cloud Platform Team&lt;/h1&gt;&lt;div&gt;&lt;ul&gt;&lt;li&gt;Administers Cloud at the Organization Level&lt;/li&gt;&lt;li&gt;Builds, Maintains, and adds feature to Account Automation&lt;/li&gt;&lt;li&gt;Determines and Maintains Cloud Standards&lt;/li&gt;&lt;li&gt;Works across teams to implement security and configuration standards (AD, Networking, Security, Accounting).&lt;/li&gt;&lt;li&gt;Builds, maintains, automates &#39;Golden&#39; configurations&lt;/li&gt;&lt;/ul&gt;&lt;/div&gt;" style="text;html=1;strokeColor=none;fillColor=none;spacing=5;spacingTop=-20;whiteSpace=wrap;overflow=hidden;rounded=0;" vertex="1" parent="1">
          <mxGeometry x="410" y="470" width="300" height="180" as="geometry" />
        </mxCell>
        <mxCell id="qQOt5yg33PH5VMS5Yy8w-22" value="&lt;h1&gt;Cloud Consulting Team&lt;/h1&gt;&lt;div style=&quot;text-align: left&quot;&gt;&lt;ul&gt;&lt;li&gt;Consults with business departments to determine cloud needs&lt;/li&gt;&lt;li&gt;Helps design and architect cloud infrastructure for business applications&lt;/li&gt;&lt;li&gt;Helps build and deploy cloud infrastructure for business applications&lt;/li&gt;&lt;li&gt;Acts as voice of customer from business to other Cloud teams/Architects&lt;/li&gt;&lt;/ul&gt;&lt;/div&gt;" style="text;html=1;strokeColor=none;fillColor=none;spacing=5;spacingTop=-20;whiteSpace=wrap;overflow=hidden;rounded=0;align=center;" vertex="1" parent="1">
          <mxGeometry x="772" y="470" width="298" height="180" as="geometry" />
        </mxCell>
      </root>
    </mxGraphModel>
  </diagram>
</mxfile>
